Coordinates
version=1
nRows=14
nColumns=46
inDegrees=yes

Units are S.I. units (second, meters, Newtons, ...)
Angles are in degrees.

endheader
time	pelvis_tilt	pelvis_list	pelvis_rotation	pelvis_tx	pelvis_ty	pelvis_tz	bb_angle	bb_tx	bb_ty	bb_tz	hip_flexion_r	hip_adduction_r	hip_rotation_r	knee_angle_r	knee_angle_r_beta	ankle_angle_r	subtalar_angle_r	mtp_angle_r	crank_angle_r	hip_flexion_l	hip_adduction_l	hip_rotation_l	knee_angle_l	knee_angle_l_beta	ankle_angle_l	subtalar_angle_l	mtp_angle_l	crank_angle_l	lumbar_extension	lumbar_bending	lumbar_rotation	arm_flex_r	arm_add_r	arm_rot_r	elbow_flex_r	pro_sup_r	wrist_flex_r	wrist_dev_r	arm_flex_l	arm_add_l	arm_rot_l	elbow_flex_l	pro_sup_l	wrist_flex_l	wrist_dev_l
      5.00000000	    -32.02463888	     10.57971242	      2.33782424	      0.38868921	      1.12853268	     -0.29151540	      0.00000000	      0.50000000	      0.00000000	      0.25000000	     39.81223491	    -14.09505054	      3.05908143	     26.32456876	      0.45945040	    -12.51957152	    -11.05038595	      0.00000000	      0.00000000	     71.43518147	      7.22040193	     -1.37171357	    103.69720324	      1.80985762	    -16.35473343	     -8.17126483	      0.00000000	      0.00000000	    -58.14557135	     -7.20569294	      5.98617322	     -8.46877894	    -50.09654239	    -18.00988341	    117.61562318	     51.63863670	      0.00000000	      0.00000000	     40.20374942	    -22.75031188	     27.46809509	     96.57594406	     52.29650869	      0.00000000	      0.00000000
      5.00500000	    -32.11692545	     10.77535783	      3.47123578	      0.38860667	      1.12791682	     -0.29110765	      0.00000000	      0.50000000	      0.00000000	      0.25000000	     38.28885888	    -14.98205982	      1.84752539	     24.68874222	      0.43089984	    -13.74489206	    -10.51410650	      0.00000000	      0.00000000	     73.08713953	      7.84730539	     -1.35452664	    105.01042454	      1.83277766	    -16.21169915	     -7.83833998	      0.00000000	      0.00000000	    -58.06008878	     -7.03113077	      5.06599672	     -8.22801135	    -49.37310305	    -17.66577980	    117.30574717	     51.63590845	      0.00000000	      0.00000000	     40.44732076	    -23.01134619	     27.79506104	     96.84079492	     52.36910728	      0.00000000	      0.00000000
      5.01000000	    -32.45278429	     11.07547584	      4.40945823	      0.38841309	      1.12717793	     -0.29034216	      0.00000000	      0.50000000	      0.00000000	      0.25000000	     37.17315410	    -15.80149285	      0.97452128	     23.24101677	      0.40563226	    -14.72464458	     -9.82954938	      0.00000000	      0.00000000	     74.93192545	      8.18777664	     -1.65409234	    106.15762500	      1.85280008	    -16.03096836	     -7.59225660	      0.00000000	      0.00000000	    -57.81122905	     -7.12956833	      4.25054097	     -8.24645965	    -48.95759840	    -17.48777007	    117.14256615	     51.63061384	      0.00000000	      0.00000000	     40.77539646	    -23.02371064	     27.90835545	     97.05159175	     52.40355815	      0.00000000	      0.00000000
      5.01500000	    -32.48170023	     11.16615808	      5.72969795	      0.38848496	      1.12721807	     -0.29020969	      0.00000000	      0.50000000	      0.00000000	      0.25000000	     35.62937522	    -16.74281940	     -0.82022569	     21.98340116	      0.38368273	    -15.68673718	     -8.87922245	      0.00000000	      0.00000000	     76.40740091	      8.90224022	     -1.62229350	    107.13095870	      1.86978796	    -15.90143216	     -7.17664460	      0.00000000	      0.00000000	    -57.82515176	     -6.67178838	      2.05818294	     -4.51215591	    -48.05734035	    -13.92133510	    115.43911884	     51.77349736	      0.00000000	      0.00000000	     40.19445480	    -25.01477341	     28.01845650	     98.67693294	     52.68773998	      0.00000000	      0.00000000
      5.02000000	    -32.67753017	     11.06432439	      6.82389832	      0.38826468	      1.12714054	     -0.28979020	      0.00000000	      0.50000000	      0.00000000	      0.25000000	     34.33076822	    -17.29416816	     -2.20282517	     20.77540950	      0.36259930	    -16.69060319	     -8.03930491	      0.00000000	      0.00000000	     78.03764006	      9.27938017	     -1.52943048	    108.00809471	      1.88509687	    -15.72622484	     -6.76088492	      0.00000000	      0.00000000	    -57.75545027	     -6.27368529	      1.40469944	     -4.29016074	    -47.53074612	    -13.76077911	    115.16203262	     51.75672642	      0.00000000	      0.00000000	     40.19142451	    -24.93986112	     27.75546990	     99.08348342	     52.72168365	      0.00000000	      0.00000000
      5.02500000	    -32.86473593	     10.93726817	      7.83942680	      0.38802692	      1.12732495	     -0.28945774	      0.00000000	      0.50000000	      0.00000000	      0.25000000	     33.16297604	    -17.77787369	     -3.57579481	     19.80287194	      0.34562532	    -17.61345460	     -6.94479731	      0.00000000	      0.00000000	     79.59166186	      9.60114836	     -1.48830730	    108.70188621	      1.89720582	    -15.53951422	     -6.27021519	      0.00000000	      0.00000000	    -57.76266770	     -5.86482204	      0.62226800	     -3.66826485	    -46.95855955	    -13.41072367	    114.68364220	     51.72614835	      0.00000000	      0.00000000	     40.13759494	    -25.19148452	     27.62885865	     99.81427956	     52.82155881	      0.00000000	      0.00000000
      5.03000000	    -33.11711889	     10.76169899	      8.81749263	      0.38789725	      1.12770571	     -0.28914807	      0.00000000	      0.50000000	      0.00000000	      0.25000000	     32.13912541	    -18.16978946	     -4.80236264	     18.97588025	      0.33119159	    -18.52545696	     -5.90084253	      0.00000000	      0.00000000	     81.11379717	      9.84340070	     -1.49423597	    109.21329916	      1.90613166	    -15.37866918	     -6.07413273	      0.00000000	      0.00000000	    -57.66874235	     -5.40087374	     -1.23800195	     -0.46664758	    -46.60193725	     -9.96224715	    113.20074828	     51.90328646	      0.00000000	      0.00000000	     38.78912067	    -26.36491863	     26.12429377	    101.62796548	     52.91346871	      0.00000000	      0.00000000
      5.03500000	    -33.48562068	     10.66515621	      9.60059747	      0.38750246	      1.12818976	     -0.28849082	      0.00000000	      0.50000000	      0.00000000	      0.25000000	     31.43315373	    -18.46399141	     -5.37750384	     18.35184689	      0.32030015	    -19.42951502	     -5.12439731	      0.00000000	      0.00000000	     82.65574199	      9.89596558	     -1.66089771	    109.50799262	      1.91127503	    -15.35295541	     -5.92113798	      0.00000000	      0.00000000	    -57.59769005	     -5.21393004	     -1.69310897	     -0.44496821	    -46.36474118	    -10.03626861	    113.05415005	     51.87478266	      0.00000000	      0.00000000	     39.17064483	    -26.34344519	     26.09785384	    101.94633569	     52.95475055	      0.00000000	      0.00000000
      5.04000000	    -33.49951211	     10.44433870	     10.63213228	      0.38763984	      1.12941148	     -0.28800926	      0.00000000	      0.50000000	      0.00000000	      0.25000000	     30.21844379	    -18.73686083	     -6.48678099	     17.79375968	      0.31055969	    -20.19606056	     -4.29556449	      0.00000000	      0.00000000	     83.68580674	     10.20779190	     -1.58903933	    109.63851871	      1.91355314	    -15.07339230	     -5.52298197	      0.00000000	      0.00000000	    -57.91292501	     -4.66429099	     -2.39537699	      0.07754561	    -45.41914941	    -10.21167365	    112.53452881	     51.77722704	      0.00000000	      0.00000000	     39.12051941	    -26.72855055	     26.18072400	    102.74710165	     53.08689006	      0.00000000	      0.00000000
      5.04500000	    -33.76119478	     10.30684649	     11.30514551	      0.38720619	      1.13044555	     -0.28729958	      0.00000000	      0.50000000	      0.00000000	      0.25000000	     29.71178933	    -18.90368890	     -6.70691118	     17.71603453	      0.30920313	    -20.95611881	     -3.86548603	      0.00000000	      0.00000000	     84.83910924	     10.09147380	     -1.86060874	    109.58731511	      1.91265947	    -14.75279761	     -5.48777366	      0.00000000	      0.00000000	    -57.99920742	     -4.46819335	     -2.84672028	      0.18957147	    -45.23926524	    -10.20391669	    112.44772622	     51.76497654	      0.00000000	      0.00000000	     39.42315192	    -26.71808452	     26.12153955	    103.05962483	     53.12472951	      0.00000000	      0.00000000
      5.05000000	    -34.03879648	     10.19657172	     12.24961470	      0.38678966	      1.13170231	     -0.28746056	      0.00000000	      0.50000000	      0.00000000	      0.25000000	     29.30713128	    -19.33666495	     -7.28520931	     18.03591247	      0.31478606	    -21.41068521	     -3.19815814	      0.00000000	      0.00000000	     85.87522472	     10.44728872	     -2.03962984	    109.34180224	      1.90837446	    -14.25713410	     -5.25757935	      0.00000000	      0.00000000	    -58.05527711	     -3.86485836	     -5.78273731	      5.47278258	    -44.23873618	     -5.32859297	    110.34850915	     51.93940884	      0.00000000	      0.00000000	     36.91997360	    -29.05262750	     23.50138685	    106.21047634	     53.26979414	      0.00000000	      0.00000000
      5.05500000	    -34.21231066	     10.15130715	     12.91825647	      0.38622908	      1.13332627	     -0.28671772	      0.00000000	      0.50000000	      0.00000000	      0.25000000	     29.07994385	    -19.58225230	     -7.25522419	     18.65680986	      0.32562276	    -21.91755815	     -3.06028167	      0.00000000	      0.00000000	     86.57369680	     10.47304253	     -2.30019916	    108.93839318	      1.90133364	    -13.37948250	     -5.02513569	      0.00000000	      0.00000000	    -58.36738564	     -3.63162793	     -6.48742360	      5.91795383	    -43.55992988	     -5.44090367	    110.33716640	     51.92947245	      0.00000000	      0.00000000	     37.14434280	    -29.61289752	     23.62248697	    106.96022796	     53.38483471	      0.00000000	      0.00000000
      5.06000000	    -34.59373026	      9.92779908	     13.53861985	      0.38584097	      1.13452335	     -0.28628923	      0.00000000	      0.50000000	      0.00000000	      0.25000000	     29.27668832	    -19.68294610	     -7.12901967	     19.62482843	      0.34251787	    -22.32376786	     -3.10547618	      0.00000000	      0.00000000	     87.33320931	     10.39100635	     -2.44936128	    108.47128780	      1.89318112	    -12.08258110	     -4.56219785	      0.00000000	      0.00000000	    -58.41885277	     -3.32262590	     -7.20901956	      6.53124731	    -42.79399738	     -5.25224105	    110.23725018	     51.93330648	      0.00000000	      0.00000000	     36.98037009	    -30.10594050	     23.43794678	    107.83614736	     53.49119947	      0.00000000	      0.00000000
      5.06500000	    -34.90225150	      9.82020492	     14.09742249	      0.38543683	      1.13616555	     -0.28551591	      0.00000000	      0.50000000	      0.00000000	      0.25000000	     29.60915226	    -19.83170900	     -6.79780335	     20.91292905	      0.36499947	    -22.75996740	     -3.46166681	      0.00000000	      0.00000000	     87.77117035	     10.30124193	     -2.66878110	    107.79821235	      1.88143373	    -10.44007313	     -3.94898034	      0.00000000	      0.00000000	    -58.62551043	     -3.04569780	     -8.24980793	      7.69805326	    -41.86237497	     -4.59515505	    110.07664643	     51.96820794	      0.00000000	      0.00000000	     36.72265070	    -31.23900793	     23.13450462	    109.00151181	     53.62762507	      0.00000000	      0.00000000
